<mxfile host="65bd71144e">
    <diagram id="C5RBs43oDa-KdzZeNtuy" name="Page-1">
        <mxGraphModel dx="754" dy="414" grid="1" gridSize="10" guides="1" tooltips="1" connect="1" arrows="1" fold="1" page="1" pageScale="1" pageWidth="827" pageHeight="1169" math="0" shadow="0">
            <root>
                <mxCell id="WIyWlLk6GJQsqaUBKTNV-0"/>
                <mxCell id="WIyWlLk6GJQsqaUBKTNV-1" parent="WIyWlLk6GJQsqaUBKTNV-0"/>
                <mxCell id="SG1zuKh5IeB1S7d--06d-7" style="rounded=0;orthogonalLoop=1;jettySize=auto;html=1;exitX=0;exitY=1;exitDx=0;exitDy=0;strokeWidth=0.5;endArrow=blockThin;endFill=1;edgeStyle=elbowEdgeStyle;entryX=0.75;entryY=0;entryDx=0;entryDy=0;shape=link;" parent="WIyWlLk6GJQsqaUBKTNV-1" source="SG1zuKh5IeB1S7d--06d-0" target="SG1zuKh5IeB1S7d--06d-1" edge="1">
                    <mxGeometry relative="1" as="geometry">
                        <mxPoint x="110" y="110" as="targetPoint"/>
                        <Array as="points">
                            <mxPoint x="70" y="90"/>
                            <mxPoint x="90" y="40"/>
                        </Array>
                    </mxGeometry>
                </mxCell>
                <mxCell id="SG1zuKh5IeB1S7d--06d-9" style="edgeStyle=elbowEdgeStyle;rounded=0;orthogonalLoop=1;jettySize=auto;html=1;strokeWidth=0.5;endArrow=blockThin;endFill=1;shape=link;" parent="WIyWlLk6GJQsqaUBKTNV-1" source="SG1zuKh5IeB1S7d--06d-0" target="SG1zuKh5IeB1S7d--06d-8" edge="1">
                    <mxGeometry relative="1" as="geometry">
                        <Array as="points">
                            <mxPoint x="170" y="60"/>
                        </Array>
                    </mxGeometry>
                </mxCell>
                <mxCell id="SG1zuKh5IeB1S7d--06d-13" style="edgeStyle=elbowEdgeStyle;shape=link;rounded=0;orthogonalLoop=1;jettySize=auto;html=1;strokeWidth=0.5;endArrow=blockThin;endFill=1;" parent="WIyWlLk6GJQsqaUBKTNV-1" source="SG1zuKh5IeB1S7d--06d-0" target="SG1zuKh5IeB1S7d--06d-12" edge="1">
                    <mxGeometry relative="1" as="geometry">
                        <Array as="points">
                            <mxPoint x="230" y="60"/>
                            <mxPoint x="260" y="60"/>
                        </Array>
                    </mxGeometry>
                </mxCell>
                <mxCell id="SG1zuKh5IeB1S7d--06d-15" style="edgeStyle=elbowEdgeStyle;shape=link;rounded=0;orthogonalLoop=1;jettySize=auto;html=1;strokeWidth=0.5;endArrow=blockThin;endFill=1;" parent="WIyWlLk6GJQsqaUBKTNV-1" source="SG1zuKh5IeB1S7d--06d-0" target="SG1zuKh5IeB1S7d--06d-14" edge="1">
                    <mxGeometry relative="1" as="geometry">
                        <Array as="points">
                            <mxPoint x="290" y="60"/>
                            <mxPoint x="300" y="70"/>
                            <mxPoint x="310" y="60"/>
                        </Array>
                    </mxGeometry>
                </mxCell>
                <mxCell id="SG1zuKh5IeB1S7d--06d-0" value="main" style="whiteSpace=wrap;html=1;aspect=fixed;" parent="WIyWlLk6GJQsqaUBKTNV-1" vertex="1">
                    <mxGeometry x="40" y="40" width="40" height="40" as="geometry"/>
                </mxCell>
                <mxCell id="SG1zuKh5IeB1S7d--06d-1" value="main.py" style="shape=parallelogram;perimeter=parallelogramPerimeter;whiteSpace=wrap;html=1;fixedSize=1;" parent="WIyWlLk6GJQsqaUBKTNV-1" vertex="1">
                    <mxGeometry x="10" y="100" width="80" height="30" as="geometry"/>
                </mxCell>
                <mxCell id="SG1zuKh5IeB1S7d--06d-17" value="" style="edgeStyle=elbowEdgeStyle;rounded=0;orthogonalLoop=1;jettySize=auto;html=1;strokeWidth=0.5;endArrow=blockThin;endFill=1;shape=link;" parent="WIyWlLk6GJQsqaUBKTNV-1" source="SG1zuKh5IeB1S7d--06d-8" target="SG1zuKh5IeB1S7d--06d-16" edge="1">
                    <mxGeometry relative="1" as="geometry">
                        <Array as="points">
                            <mxPoint x="110" y="140"/>
                        </Array>
                    </mxGeometry>
                </mxCell>
                <mxCell id="SG1zuKh5IeB1S7d--06d-23" style="edgeStyle=elbowEdgeStyle;rounded=0;orthogonalLoop=1;jettySize=auto;html=1;strokeWidth=0.5;fontSize=7;endArrow=blockThin;endFill=1;shape=link;" parent="WIyWlLk6GJQsqaUBKTNV-1" source="SG1zuKh5IeB1S7d--06d-8" target="SG1zuKh5IeB1S7d--06d-22" edge="1">
                    <mxGeometry relative="1" as="geometry"/>
                </mxCell>
                <mxCell id="SG1zuKh5IeB1S7d--06d-25" style="edgeStyle=elbowEdgeStyle;rounded=0;orthogonalLoop=1;jettySize=auto;html=1;strokeWidth=0.5;fontSize=7;endArrow=blockThin;endFill=1;shape=link;" parent="WIyWlLk6GJQsqaUBKTNV-1" source="SG1zuKh5IeB1S7d--06d-8" target="SG1zuKh5IeB1S7d--06d-24" edge="1">
                    <mxGeometry relative="1" as="geometry"/>
                </mxCell>
                <mxCell id="SG1zuKh5IeB1S7d--06d-8" value="tools&lt;br&gt;" style="whiteSpace=wrap;html=1;aspect=fixed;" parent="WIyWlLk6GJQsqaUBKTNV-1" vertex="1">
                    <mxGeometry x="150" y="80" width="40" height="40" as="geometry"/>
                </mxCell>
                <mxCell id="SG1zuKh5IeB1S7d--06d-27" value="" style="edgeStyle=elbowEdgeStyle;rounded=0;orthogonalLoop=1;jettySize=auto;html=1;strokeWidth=0.5;fontSize=5;endArrow=blockThin;endFill=1;shape=link;" parent="WIyWlLk6GJQsqaUBKTNV-1" source="SG1zuKh5IeB1S7d--06d-12" target="SG1zuKh5IeB1S7d--06d-26" edge="1">
                    <mxGeometry relative="1" as="geometry"/>
                </mxCell>
                <mxCell id="SG1zuKh5IeB1S7d--06d-12" value="configs" style="whiteSpace=wrap;html=1;aspect=fixed;" parent="WIyWlLk6GJQsqaUBKTNV-1" vertex="1">
                    <mxGeometry x="210" y="80" width="40" height="40" as="geometry"/>
                </mxCell>
                <mxCell id="SG1zuKh5IeB1S7d--06d-36" style="edgeStyle=elbowEdgeStyle;rounded=0;orthogonalLoop=1;jettySize=auto;html=1;exitX=0;exitY=1;exitDx=0;exitDy=0;entryX=0;entryY=0;entryDx=0;entryDy=0;strokeWidth=0.5;fontSize=5;endArrow=blockThin;endFill=1;shape=link;" parent="WIyWlLk6GJQsqaUBKTNV-1" source="SG1zuKh5IeB1S7d--06d-14" target="SG1zuKh5IeB1S7d--06d-29" edge="1">
                    <mxGeometry relative="1" as="geometry"/>
                </mxCell>
                <mxCell id="SG1zuKh5IeB1S7d--06d-37" style="edgeStyle=elbowEdgeStyle;rounded=0;orthogonalLoop=1;jettySize=auto;html=1;entryX=0.091;entryY=0.524;entryDx=0;entryDy=0;entryPerimeter=0;strokeWidth=0.5;fontSize=5;endArrow=blockThin;endFill=1;shape=link;" parent="WIyWlLk6GJQsqaUBKTNV-1" source="SG1zuKh5IeB1S7d--06d-14" target="SG1zuKh5IeB1S7d--06d-30" edge="1">
                    <mxGeometry relative="1" as="geometry">
                        <Array as="points">
                            <mxPoint x="270" y="180"/>
                        </Array>
                    </mxGeometry>
                </mxCell>
                <mxCell id="SG1zuKh5IeB1S7d--06d-39" style="edgeStyle=elbowEdgeStyle;rounded=0;orthogonalLoop=1;jettySize=auto;html=1;entryX=0.086;entryY=0.579;entryDx=0;entryDy=0;entryPerimeter=0;strokeWidth=0.5;fontSize=5;endArrow=blockThin;endFill=1;shape=link;" parent="WIyWlLk6GJQsqaUBKTNV-1" source="SG1zuKh5IeB1S7d--06d-14" target="SG1zuKh5IeB1S7d--06d-31" edge="1">
                    <mxGeometry relative="1" as="geometry">
                        <Array as="points">
                            <mxPoint x="270" y="170"/>
                        </Array>
                    </mxGeometry>
                </mxCell>
                <mxCell id="SG1zuKh5IeB1S7d--06d-40" style="edgeStyle=elbowEdgeStyle;rounded=0;orthogonalLoop=1;jettySize=auto;html=1;entryX=0.099;entryY=0.524;entryDx=0;entryDy=0;entryPerimeter=0;strokeWidth=0.5;fontSize=5;endArrow=blockThin;endFill=1;shape=link;" parent="WIyWlLk6GJQsqaUBKTNV-1" source="SG1zuKh5IeB1S7d--06d-14" target="SG1zuKh5IeB1S7d--06d-32" edge="1">
                    <mxGeometry relative="1" as="geometry">
                        <Array as="points">
                            <mxPoint x="270" y="260"/>
                        </Array>
                    </mxGeometry>
                </mxCell>
                <mxCell id="SG1zuKh5IeB1S7d--06d-41" style="edgeStyle=elbowEdgeStyle;rounded=0;orthogonalLoop=1;jettySize=auto;html=1;entryX=0;entryY=0.75;entryDx=0;entryDy=0;strokeWidth=0.5;fontSize=5;endArrow=blockThin;endFill=1;shape=link;" parent="WIyWlLk6GJQsqaUBKTNV-1" source="SG1zuKh5IeB1S7d--06d-14" target="SG1zuKh5IeB1S7d--06d-33" edge="1">
                    <mxGeometry relative="1" as="geometry">
                        <Array as="points">
                            <mxPoint x="270" y="260"/>
                        </Array>
                    </mxGeometry>
                </mxCell>
                <mxCell id="SG1zuKh5IeB1S7d--06d-42" style="edgeStyle=elbowEdgeStyle;rounded=0;orthogonalLoop=1;jettySize=auto;html=1;entryX=0.096;entryY=0.603;entryDx=0;entryDy=0;entryPerimeter=0;strokeWidth=0.5;fontSize=5;endArrow=blockThin;endFill=1;shape=link;" parent="WIyWlLk6GJQsqaUBKTNV-1" source="SG1zuKh5IeB1S7d--06d-14" target="SG1zuKh5IeB1S7d--06d-34" edge="1">
                    <mxGeometry relative="1" as="geometry">
                        <Array as="points">
                            <mxPoint x="270" y="290"/>
                        </Array>
                    </mxGeometry>
                </mxCell>
                <mxCell id="SG1zuKh5IeB1S7d--06d-43" style="edgeStyle=elbowEdgeStyle;rounded=0;orthogonalLoop=1;jettySize=auto;html=1;entryX=0;entryY=0.75;entryDx=0;entryDy=0;strokeWidth=0.5;fontSize=5;endArrow=blockThin;endFill=1;shape=link;" parent="WIyWlLk6GJQsqaUBKTNV-1" source="SG1zuKh5IeB1S7d--06d-14" target="SG1zuKh5IeB1S7d--06d-35" edge="1">
                    <mxGeometry relative="1" as="geometry">
                        <Array as="points">
                            <mxPoint x="270" y="130"/>
                            <mxPoint x="270" y="300"/>
                        </Array>
                    </mxGeometry>
                </mxCell>
                <mxCell id="SG1zuKh5IeB1S7d--06d-92" style="edgeStyle=elbowEdgeStyle;rounded=0;orthogonalLoop=1;jettySize=auto;html=1;exitX=0;exitY=1;exitDx=0;exitDy=0;entryX=0.5;entryY=0;entryDx=0;entryDy=0;strokeWidth=0.5;fontSize=6;endArrow=blockThin;endFill=1;" parent="WIyWlLk6GJQsqaUBKTNV-1" source="SG1zuKh5IeB1S7d--06d-14" target="SG1zuKh5IeB1S7d--06d-66" edge="1">
                    <mxGeometry relative="1" as="geometry">
                        <Array as="points">
                            <mxPoint x="170" y="140"/>
                        </Array>
                    </mxGeometry>
                </mxCell>
                <mxCell id="SG1zuKh5IeB1S7d--06d-93" style="edgeStyle=elbowEdgeStyle;rounded=0;orthogonalLoop=1;jettySize=auto;html=1;entryX=0.788;entryY=1.007;entryDx=0;entryDy=0;strokeWidth=0.5;fontSize=6;endArrow=blockThin;endFill=1;entryPerimeter=0;" parent="WIyWlLk6GJQsqaUBKTNV-1" source="SG1zuKh5IeB1S7d--06d-14" target="SG1zuKh5IeB1S7d--06d-49" edge="1">
                    <mxGeometry relative="1" as="geometry">
                        <Array as="points">
                            <mxPoint x="270" y="130"/>
                            <mxPoint x="240" y="350"/>
                            <mxPoint x="120" y="350"/>
                            <mxPoint x="270" y="290"/>
                            <mxPoint x="180" y="350"/>
                            <mxPoint x="280" y="290"/>
                            <mxPoint x="90" y="370"/>
                        </Array>
                    </mxGeometry>
                </mxCell>
                <mxCell id="SG1zuKh5IeB1S7d--06d-14" value="cogs" style="whiteSpace=wrap;html=1;aspect=fixed;" parent="WIyWlLk6GJQsqaUBKTNV-1" vertex="1">
                    <mxGeometry x="270" y="80" width="40" height="40" as="geometry"/>
                </mxCell>
                <mxCell id="SG1zuKh5IeB1S7d--06d-52" style="edgeStyle=elbowEdgeStyle;rounded=0;orthogonalLoop=1;jettySize=auto;html=1;exitX=0;exitY=1;exitDx=0;exitDy=0;strokeWidth=0.5;fontSize=6;endArrow=blockThin;endFill=1;" parent="WIyWlLk6GJQsqaUBKTNV-1" source="SG1zuKh5IeB1S7d--06d-16" edge="1">
                    <mxGeometry relative="1" as="geometry">
                        <mxPoint x="50" y="130" as="targetPoint"/>
                        <Array as="points">
                            <mxPoint x="49" y="130"/>
                        </Array>
                    </mxGeometry>
                </mxCell>
                <mxCell id="SG1zuKh5IeB1S7d--06d-89" style="edgeStyle=elbowEdgeStyle;rounded=0;orthogonalLoop=1;jettySize=auto;html=1;exitX=0.75;exitY=1;exitDx=0;exitDy=0;strokeWidth=0.5;fontSize=6;endArrow=blockThin;endFill=1;" parent="WIyWlLk6GJQsqaUBKTNV-1" source="SG1zuKh5IeB1S7d--06d-16" edge="1">
                    <mxGeometry relative="1" as="geometry">
                        <mxPoint x="270" y="179" as="targetPoint"/>
                        <Array as="points">
                            <mxPoint x="260" y="190"/>
                            <mxPoint x="100" y="190"/>
                        </Array>
                    </mxGeometry>
                </mxCell>
                <mxCell id="SG1zuKh5IeB1S7d--06d-16" value="&lt;font style=&quot;font-size: 5px;&quot;&gt;Databaseconnect.py&lt;/font&gt;" style="shape=parallelogram;perimeter=parallelogramPerimeter;whiteSpace=wrap;html=1;fixedSize=1;" parent="WIyWlLk6GJQsqaUBKTNV-1" vertex="1">
                    <mxGeometry x="50" y="150" width="70" height="30" as="geometry"/>
                </mxCell>
                <mxCell id="SG1zuKh5IeB1S7d--06d-51" style="edgeStyle=elbowEdgeStyle;rounded=0;orthogonalLoop=1;jettySize=auto;html=1;exitX=0;exitY=1;exitDx=0;exitDy=0;strokeWidth=0.5;fontSize=6;endArrow=blockThin;endFill=1;" parent="WIyWlLk6GJQsqaUBKTNV-1" source="SG1zuKh5IeB1S7d--06d-22" edge="1">
                    <mxGeometry relative="1" as="geometry">
                        <mxPoint x="40" y="130" as="targetPoint"/>
                        <Array as="points">
                            <mxPoint x="40" y="180"/>
                        </Array>
                    </mxGeometry>
                </mxCell>
                <mxCell id="SG1zuKh5IeB1S7d--06d-22" value="&lt;font style=&quot;font-size: 7px;&quot;&gt;logs.py&lt;/font&gt;" style="shape=parallelogram;perimeter=parallelogramPerimeter;whiteSpace=wrap;html=1;fixedSize=1;" parent="WIyWlLk6GJQsqaUBKTNV-1" vertex="1">
                    <mxGeometry x="50" y="200" width="70" height="30" as="geometry"/>
                </mxCell>
                <mxCell id="SG1zuKh5IeB1S7d--06d-50" style="edgeStyle=elbowEdgeStyle;rounded=0;orthogonalLoop=1;jettySize=auto;html=1;exitX=0;exitY=1;exitDx=0;exitDy=0;entryX=0.25;entryY=1;entryDx=0;entryDy=0;strokeWidth=0.5;fontSize=6;endArrow=blockThin;endFill=1;" parent="WIyWlLk6GJQsqaUBKTNV-1" source="SG1zuKh5IeB1S7d--06d-24" target="SG1zuKh5IeB1S7d--06d-1" edge="1">
                    <mxGeometry relative="1" as="geometry">
                        <Array as="points">
                            <mxPoint x="30" y="210"/>
                        </Array>
                    </mxGeometry>
                </mxCell>
                <mxCell id="SG1zuKh5IeB1S7d--06d-24" value="&lt;font style=&quot;font-size: 7px;&quot;&gt;plugins.py&lt;br&gt;&lt;/font&gt;" style="shape=parallelogram;perimeter=parallelogramPerimeter;whiteSpace=wrap;html=1;fixedSize=1;" parent="WIyWlLk6GJQsqaUBKTNV-1" vertex="1">
                    <mxGeometry x="50" y="250" width="70" height="30" as="geometry"/>
                </mxCell>
                <mxCell id="SG1zuKh5IeB1S7d--06d-61" style="edgeStyle=elbowEdgeStyle;rounded=0;orthogonalLoop=1;jettySize=auto;html=1;exitX=0;exitY=1;exitDx=0;exitDy=0;entryX=1;entryY=0.5;entryDx=0;entryDy=0;strokeWidth=0.5;fontSize=6;endArrow=blockThin;endFill=1;" parent="WIyWlLk6GJQsqaUBKTNV-1" source="SG1zuKh5IeB1S7d--06d-26" target="SG1zuKh5IeB1S7d--06d-16" edge="1">
                    <mxGeometry relative="1" as="geometry">
                        <Array as="points">
                            <mxPoint x="200" y="170"/>
                            <mxPoint x="170" y="170"/>
                        </Array>
                    </mxGeometry>
                </mxCell>
                <mxCell id="SG1zuKh5IeB1S7d--06d-26" value="&lt;font style=&quot;font-size: 5px;&quot;&gt;database_config.py&lt;/font&gt;" style="shape=parallelogram;perimeter=parallelogramPerimeter;whiteSpace=wrap;html=1;fixedSize=1;" parent="WIyWlLk6GJQsqaUBKTNV-1" vertex="1">
                    <mxGeometry x="195" y="130" width="70" height="30" as="geometry"/>
                </mxCell>
                <mxCell id="SG1zuKh5IeB1S7d--06d-65" style="edgeStyle=elbowEdgeStyle;rounded=0;orthogonalLoop=1;jettySize=auto;html=1;exitX=1;exitY=0.5;exitDx=0;exitDy=0;entryX=0;entryY=0.5;entryDx=0;entryDy=0;strokeWidth=0.5;fontSize=6;endArrow=blockThin;endFill=1;shape=link;" parent="WIyWlLk6GJQsqaUBKTNV-1" source="SG1zuKh5IeB1S7d--06d-29" target="SG1zuKh5IeB1S7d--06d-62" edge="1">
                    <mxGeometry relative="1" as="geometry"/>
                </mxCell>
                <mxCell id="SG1zuKh5IeB1S7d--06d-29" value="&lt;font style=&quot;font-size: 7px;&quot;&gt;economy.py&lt;br&gt;&lt;/font&gt;" style="shape=parallelogram;perimeter=parallelogramPerimeter;whiteSpace=wrap;html=1;fixedSize=1;" parent="WIyWlLk6GJQsqaUBKTNV-1" vertex="1">
                    <mxGeometry x="280" y="130" width="70" height="30" as="geometry"/>
                </mxCell>
                <mxCell id="SG1zuKh5IeB1S7d--06d-84" style="edgeStyle=elbowEdgeStyle;shape=link;rounded=0;orthogonalLoop=1;jettySize=auto;html=1;exitX=1;exitY=0.5;exitDx=0;exitDy=0;entryX=0;entryY=0.5;entryDx=0;entryDy=0;strokeWidth=0.5;fontSize=6;endArrow=blockThin;endFill=1;" parent="WIyWlLk6GJQsqaUBKTNV-1" source="SG1zuKh5IeB1S7d--06d-30" target="SG1zuKh5IeB1S7d--06d-68" edge="1">
                    <mxGeometry relative="1" as="geometry"/>
                </mxCell>
                <mxCell id="SG1zuKh5IeB1S7d--06d-30" value="&lt;span style=&quot;font-size: 7px;&quot;&gt;information.py&lt;/span&gt;" style="shape=parallelogram;perimeter=parallelogramPerimeter;whiteSpace=wrap;html=1;fixedSize=1;" parent="WIyWlLk6GJQsqaUBKTNV-1" vertex="1">
                    <mxGeometry x="280" y="170" width="70" height="30" as="geometry"/>
                </mxCell>
                <mxCell id="SG1zuKh5IeB1S7d--06d-80" style="edgeStyle=elbowEdgeStyle;shape=link;rounded=0;orthogonalLoop=1;jettySize=auto;html=1;exitX=1;exitY=0.5;exitDx=0;exitDy=0;entryX=0;entryY=0.5;entryDx=0;entryDy=0;strokeWidth=0.5;fontSize=6;endArrow=blockThin;endFill=1;" parent="WIyWlLk6GJQsqaUBKTNV-1" source="SG1zuKh5IeB1S7d--06d-31" target="SG1zuKh5IeB1S7d--06d-69" edge="1">
                    <mxGeometry relative="1" as="geometry"/>
                </mxCell>
                <mxCell id="SG1zuKh5IeB1S7d--06d-31" value="&lt;font style=&quot;font-size: 7px;&quot;&gt;mediamod&lt;/font&gt;" style="shape=parallelogram;perimeter=parallelogramPerimeter;whiteSpace=wrap;html=1;fixedSize=1;" parent="WIyWlLk6GJQsqaUBKTNV-1" vertex="1">
                    <mxGeometry x="280" y="210" width="70" height="30" as="geometry"/>
                </mxCell>
                <mxCell id="SG1zuKh5IeB1S7d--06d-79" style="edgeStyle=elbowEdgeStyle;shape=link;rounded=0;orthogonalLoop=1;jettySize=auto;html=1;exitX=1;exitY=0.5;exitDx=0;exitDy=0;entryX=0;entryY=0.5;entryDx=0;entryDy=0;strokeWidth=0.5;fontSize=6;endArrow=blockThin;endFill=1;" parent="WIyWlLk6GJQsqaUBKTNV-1" source="SG1zuKh5IeB1S7d--06d-32" target="SG1zuKh5IeB1S7d--06d-70" edge="1">
                    <mxGeometry relative="1" as="geometry"/>
                </mxCell>
                <mxCell id="SG1zuKh5IeB1S7d--06d-32" value="&lt;font style=&quot;font-size: 7px;&quot;&gt;moderation.py&lt;/font&gt;" style="shape=parallelogram;perimeter=parallelogramPerimeter;whiteSpace=wrap;html=1;fixedSize=1;" parent="WIyWlLk6GJQsqaUBKTNV-1" vertex="1">
                    <mxGeometry x="280" y="250" width="70" height="30" as="geometry"/>
                </mxCell>
                <mxCell id="SG1zuKh5IeB1S7d--06d-76" value="" style="edgeStyle=elbowEdgeStyle;shape=link;rounded=0;orthogonalLoop=1;jettySize=auto;html=1;strokeWidth=0.5;fontSize=6;endArrow=blockThin;endFill=1;" parent="WIyWlLk6GJQsqaUBKTNV-1" source="SG1zuKh5IeB1S7d--06d-33" target="SG1zuKh5IeB1S7d--06d-72" edge="1">
                    <mxGeometry relative="1" as="geometry"/>
                </mxCell>
                <mxCell id="SG1zuKh5IeB1S7d--06d-33" value="&lt;span style=&quot;font-size: 7px;&quot;&gt;petsmod.py&lt;/span&gt;" style="shape=parallelogram;perimeter=parallelogramPerimeter;whiteSpace=wrap;html=1;fixedSize=1;" parent="WIyWlLk6GJQsqaUBKTNV-1" vertex="1">
                    <mxGeometry x="280" y="290" width="70" height="30" as="geometry"/>
                </mxCell>
                <mxCell id="SG1zuKh5IeB1S7d--06d-75" style="edgeStyle=elbowEdgeStyle;shape=link;rounded=0;orthogonalLoop=1;jettySize=auto;html=1;exitX=1;exitY=0.5;exitDx=0;exitDy=0;entryX=-0.041;entryY=0.417;entryDx=0;entryDy=0;entryPerimeter=0;strokeWidth=0.5;fontSize=6;endArrow=blockThin;endFill=1;" parent="WIyWlLk6GJQsqaUBKTNV-1" source="SG1zuKh5IeB1S7d--06d-34" target="SG1zuKh5IeB1S7d--06d-71" edge="1">
                    <mxGeometry relative="1" as="geometry"/>
                </mxCell>
                <mxCell id="SG1zuKh5IeB1S7d--06d-34" value="&lt;font style=&quot;font-size: 7px;&quot;&gt;rolesmods.py&lt;/font&gt;" style="shape=parallelogram;perimeter=parallelogramPerimeter;whiteSpace=wrap;html=1;fixedSize=1;" parent="WIyWlLk6GJQsqaUBKTNV-1" vertex="1">
                    <mxGeometry x="280" y="330" width="70" height="30" as="geometry"/>
                </mxCell>
                <mxCell id="SG1zuKh5IeB1S7d--06d-74" style="edgeStyle=elbowEdgeStyle;rounded=0;orthogonalLoop=1;jettySize=auto;html=1;exitX=1;exitY=0.75;exitDx=0;exitDy=0;entryX=-0.028;entryY=0.65;entryDx=0;entryDy=0;strokeWidth=0.5;fontSize=6;endArrow=blockThin;endFill=1;shape=link;entryPerimeter=0;" parent="WIyWlLk6GJQsqaUBKTNV-1" source="SG1zuKh5IeB1S7d--06d-35" target="SG1zuKh5IeB1S7d--06d-73" edge="1">
                    <mxGeometry relative="1" as="geometry"/>
                </mxCell>
                <mxCell id="SG1zuKh5IeB1S7d--06d-35" value="&lt;font style=&quot;font-size: 7px;&quot;&gt;voicemods.py&lt;/font&gt;" style="shape=parallelogram;perimeter=parallelogramPerimeter;whiteSpace=wrap;html=1;fixedSize=1;" parent="WIyWlLk6GJQsqaUBKTNV-1" vertex="1">
                    <mxGeometry x="280" y="370" width="70" height="30" as="geometry"/>
                </mxCell>
                <mxCell id="SG1zuKh5IeB1S7d--06d-47" style="edgeStyle=elbowEdgeStyle;rounded=0;orthogonalLoop=1;jettySize=auto;html=1;exitX=0.5;exitY=0;exitDx=0;exitDy=0;entryX=0;entryY=1;entryDx=0;entryDy=0;strokeWidth=0.5;fontSize=8;endArrow=blockThin;endFill=1;" parent="WIyWlLk6GJQsqaUBKTNV-1" target="SG1zuKh5IeB1S7d--06d-1" edge="1">
                    <mxGeometry relative="1" as="geometry">
                        <mxPoint x="25.000000000000057" y="305" as="sourcePoint"/>
                        <Array as="points">
                            <mxPoint x="10" y="170"/>
                            <mxPoint x="25" y="180"/>
                            <mxPoint x="26" y="133"/>
                        </Array>
                    </mxGeometry>
                </mxCell>
                <mxCell id="SG1zuKh5IeB1S7d--06d-53" style="edgeStyle=elbowEdgeStyle;rounded=0;orthogonalLoop=1;jettySize=auto;html=1;exitX=0.375;exitY=0;exitDx=0;exitDy=0;entryX=0.126;entryY=0.387;entryDx=0;entryDy=0;entryPerimeter=0;strokeWidth=0.5;fontSize=6;endArrow=blockThin;endFill=1;" parent="WIyWlLk6GJQsqaUBKTNV-1" source="SG1zuKh5IeB1S7d--06d-49" target="SG1zuKh5IeB1S7d--06d-24" edge="1">
                    <mxGeometry relative="1" as="geometry"/>
                </mxCell>
                <mxCell id="SG1zuKh5IeB1S7d--06d-49" value="&lt;font style=&quot;font-size: 6px;&quot;&gt;DiscordAPI&lt;br&gt;OS&lt;br&gt;Discord.ext =&amp;gt; commands&lt;/font&gt;" style="shape=hexagon;perimeter=hexagonPerimeter2;whiteSpace=wrap;html=1;fixedSize=1;fontSize=8;" parent="WIyWlLk6GJQsqaUBKTNV-1" vertex="1">
                    <mxGeometry y="297.5" width="100" height="35" as="geometry"/>
                </mxCell>
                <mxCell id="SG1zuKh5IeB1S7d--06d-55" style="edgeStyle=elbowEdgeStyle;rounded=0;orthogonalLoop=1;jettySize=auto;html=1;entryX=1;entryY=0;entryDx=0;entryDy=0;strokeWidth=0.5;fontSize=6;endArrow=blockThin;endFill=1;" parent="WIyWlLk6GJQsqaUBKTNV-1" source="SG1zuKh5IeB1S7d--06d-54" target="SG1zuKh5IeB1S7d--06d-22" edge="1">
                    <mxGeometry relative="1" as="geometry"/>
                </mxCell>
                <mxCell id="SG1zuKh5IeB1S7d--06d-54" value="&lt;span style=&quot;font-size: 6px;&quot;&gt;logging&lt;/span&gt;" style="shape=hexagon;perimeter=hexagonPerimeter2;whiteSpace=wrap;html=1;fixedSize=1;fontSize=8;" parent="WIyWlLk6GJQsqaUBKTNV-1" vertex="1">
                    <mxGeometry x="100" y="300" width="80" height="30" as="geometry"/>
                </mxCell>
                <mxCell id="SG1zuKh5IeB1S7d--06d-56" value="&lt;span style=&quot;font-size: 6px;&quot;&gt;logging&lt;/span&gt;" style="shape=hexagon;perimeter=hexagonPerimeter2;whiteSpace=wrap;html=1;fixedSize=1;fontSize=8;" parent="WIyWlLk6GJQsqaUBKTNV-1" vertex="1">
                    <mxGeometry x="100" y="300" width="80" height="30" as="geometry"/>
                </mxCell>
                <mxCell id="SG1zuKh5IeB1S7d--06d-91" style="edgeStyle=elbowEdgeStyle;rounded=0;orthogonalLoop=1;jettySize=auto;html=1;exitX=0.75;exitY=0;exitDx=0;exitDy=0;strokeWidth=0.5;fontSize=6;endArrow=blockThin;endFill=1;" parent="WIyWlLk6GJQsqaUBKTNV-1" source="SG1zuKh5IeB1S7d--06d-57" edge="1">
                    <mxGeometry relative="1" as="geometry">
                        <mxPoint x="270" y="190" as="targetPoint"/>
                        <Array as="points">
                            <mxPoint x="100" y="190"/>
                        </Array>
                    </mxGeometry>
                </mxCell>
                <mxCell id="SG1zuKh5IeB1S7d--06d-57" value="&lt;font style=&quot;font-size: 7px;&quot;&gt;logs.py&lt;/font&gt;" style="shape=parallelogram;perimeter=parallelogramPerimeter;whiteSpace=wrap;html=1;fixedSize=1;" parent="WIyWlLk6GJQsqaUBKTNV-1" vertex="1">
                    <mxGeometry x="50" y="200" width="70" height="30" as="geometry"/>
                </mxCell>
                <mxCell id="SG1zuKh5IeB1S7d--06d-60" style="edgeStyle=elbowEdgeStyle;rounded=0;orthogonalLoop=1;jettySize=auto;html=1;entryX=1;entryY=0.5;entryDx=0;entryDy=0;strokeWidth=0.5;fontSize=6;endArrow=blockThin;endFill=1;" parent="WIyWlLk6GJQsqaUBKTNV-1" source="SG1zuKh5IeB1S7d--06d-59" target="SG1zuKh5IeB1S7d--06d-16" edge="1">
                    <mxGeometry relative="1" as="geometry">
                        <Array as="points">
                            <mxPoint x="200" y="240"/>
                            <mxPoint x="160" y="165"/>
                            <mxPoint x="120" y="210"/>
                            <mxPoint x="170" y="170"/>
                        </Array>
                    </mxGeometry>
                </mxCell>
                <mxCell id="SG1zuKh5IeB1S7d--06d-59" value="&lt;span style=&quot;font-size: 6px;&quot;&gt;psycopg2&lt;/span&gt;" style="shape=hexagon;perimeter=hexagonPerimeter2;whiteSpace=wrap;html=1;fixedSize=1;fontSize=8;" parent="WIyWlLk6GJQsqaUBKTNV-1" vertex="1">
                    <mxGeometry x="180" y="300" width="80" height="30" as="geometry"/>
                </mxCell>
                <mxCell id="SG1zuKh5IeB1S7d--06d-62" value="Economics" style="html=1;fontSize=6;" parent="WIyWlLk6GJQsqaUBKTNV-1" vertex="1">
                    <mxGeometry x="370" y="130" width="80" height="30" as="geometry"/>
                </mxCell>
                <mxCell id="SG1zuKh5IeB1S7d--06d-67" style="edgeStyle=elbowEdgeStyle;rounded=0;orthogonalLoop=1;jettySize=auto;html=1;entryX=1;entryY=0.5;entryDx=0;entryDy=0;strokeWidth=0.5;fontSize=6;endArrow=blockThin;endFill=1;" parent="WIyWlLk6GJQsqaUBKTNV-1" source="SG1zuKh5IeB1S7d--06d-66" target="SG1zuKh5IeB1S7d--06d-16" edge="1">
                    <mxGeometry relative="1" as="geometry">
                        <Array as="points">
                            <mxPoint x="170" y="170"/>
                            <mxPoint x="220" y="180"/>
                        </Array>
                    </mxGeometry>
                </mxCell>
                <mxCell id="SG1zuKh5IeB1S7d--06d-66" value="database" style="shape=datastore;whiteSpace=wrap;html=1;fontSize=6;" parent="WIyWlLk6GJQsqaUBKTNV-1" vertex="1">
                    <mxGeometry x="150" y="140" width="40" height="40" as="geometry"/>
                </mxCell>
                <mxCell id="SG1zuKh5IeB1S7d--06d-69" value="Economics" style="html=1;fontSize=6;" parent="WIyWlLk6GJQsqaUBKTNV-1" vertex="1">
                    <mxGeometry x="370" y="210" width="80" height="30" as="geometry"/>
                </mxCell>
                <mxCell id="SG1zuKh5IeB1S7d--06d-70" value="Economics" style="html=1;fontSize=6;" parent="WIyWlLk6GJQsqaUBKTNV-1" vertex="1">
                    <mxGeometry x="370" y="250" width="80" height="30" as="geometry"/>
                </mxCell>
                <mxCell id="SG1zuKh5IeB1S7d--06d-71" value="Economics" style="html=1;fontSize=6;" parent="WIyWlLk6GJQsqaUBKTNV-1" vertex="1">
                    <mxGeometry x="370" y="332.5" width="80" height="30" as="geometry"/>
                </mxCell>
                <mxCell id="SG1zuKh5IeB1S7d--06d-72" value="Economics" style="html=1;fontSize=6;" parent="WIyWlLk6GJQsqaUBKTNV-1" vertex="1">
                    <mxGeometry x="370" y="290" width="80" height="30" as="geometry"/>
                </mxCell>
                <mxCell id="SG1zuKh5IeB1S7d--06d-73" value="Economics" style="html=1;fontSize=6;" parent="WIyWlLk6GJQsqaUBKTNV-1" vertex="1">
                    <mxGeometry x="370" y="370" width="80" height="30" as="geometry"/>
                </mxCell>
                <mxCell id="SG1zuKh5IeB1S7d--06d-68" value="Economics" style="html=1;fontSize=6;" parent="WIyWlLk6GJQsqaUBKTNV-1" vertex="1">
                    <mxGeometry x="370" y="170" width="80" height="30" as="geometry"/>
                </mxCell>
            </root>
        </mxGraphModel>
    </diagram>
    <diagram id="hR5umsb1tg4AnsLWN7ze" name="Page-2">
        <mxGraphModel dx="754" dy="414" grid="1" gridSize="10" guides="1" tooltips="1" connect="1" arrows="1" fold="1" page="1" pageScale="1" pageWidth="850" pageHeight="1100" math="0" shadow="0">
            <root>
                <mxCell id="KaQHJhUn6kAV-yZn69av-0"/>
                <mxCell id="KaQHJhUn6kAV-yZn69av-1" parent="KaQHJhUn6kAV-yZn69av-0"/>
                <mxCell id="KaQHJhUn6kAV-yZn69av-4" value="" style="edgeStyle=orthogonalEdgeStyle;html=1;" parent="KaQHJhUn6kAV-yZn69av-1" source="KaQHJhUn6kAV-yZn69av-2" target="KaQHJhUn6kAV-yZn69av-3" edge="1">
                    <mxGeometry relative="1" as="geometry"/>
                </mxCell>
                <mxCell id="KaQHJhUn6kAV-yZn69av-6" value="" style="edgeStyle=orthogonalEdgeStyle;html=1;" parent="KaQHJhUn6kAV-yZn69av-1" source="KaQHJhUn6kAV-yZn69av-2" target="KaQHJhUn6kAV-yZn69av-5" edge="1">
                    <mxGeometry relative="1" as="geometry"/>
                </mxCell>
                <mxCell id="KaQHJhUn6kAV-yZn69av-8" value="" style="edgeStyle=orthogonalEdgeStyle;html=1;" parent="KaQHJhUn6kAV-yZn69av-1" source="KaQHJhUn6kAV-yZn69av-2" target="KaQHJhUn6kAV-yZn69av-7" edge="1">
                    <mxGeometry relative="1" as="geometry"/>
                </mxCell>
                <mxCell id="KaQHJhUn6kAV-yZn69av-2" value="Все функиции" style="rounded=1;whiteSpace=wrap;html=1;fillColor=#f5f5f5;fontColor=#333333;strokeColor=#666666;" parent="KaQHJhUn6kAV-yZn69av-1" vertex="1">
                    <mxGeometry x="365" y="10" width="120" height="60" as="geometry"/>
                </mxCell>
                <mxCell id="KaQHJhUn6kAV-yZn69av-10" value="" style="edgeStyle=orthogonalEdgeStyle;html=1;fontColor=#030303;" parent="KaQHJhUn6kAV-yZn69av-1" source="KaQHJhUn6kAV-yZn69av-3" target="KaQHJhUn6kAV-yZn69av-9" edge="1">
                    <mxGeometry relative="1" as="geometry"/>
                </mxCell>
                <mxCell id="KaQHJhUn6kAV-yZn69av-3" value="Функции модерации" style="whiteSpace=wrap;html=1;fillColor=#1ba1e2;strokeColor=#006EAF;rounded=1;fontColor=#ffffff;" parent="KaQHJhUn6kAV-yZn69av-1" vertex="1">
                    <mxGeometry x="80" y="10" width="120" height="60" as="geometry"/>
                </mxCell>
                <mxCell id="KaQHJhUn6kAV-yZn69av-12" value="" style="edgeStyle=orthogonalEdgeStyle;html=1;fontColor=#030303;" parent="KaQHJhUn6kAV-yZn69av-1" source="KaQHJhUn6kAV-yZn69av-5" target="KaQHJhUn6kAV-yZn69av-11" edge="1">
                    <mxGeometry relative="1" as="geometry">
                        <Array as="points">
                            <mxPoint x="750" y="120"/>
                            <mxPoint x="750" y="120"/>
                        </Array>
                    </mxGeometry>
                </mxCell>
                <mxCell id="KaQHJhUn6kAV-yZn69av-14" value="" style="edgeStyle=orthogonalEdgeStyle;html=1;fontColor=#030303;" parent="KaQHJhUn6kAV-yZn69av-1" source="KaQHJhUn6kAV-yZn69av-5" target="KaQHJhUn6kAV-yZn69av-13" edge="1">
                    <mxGeometry relative="1" as="geometry">
                        <Array as="points">
                            <mxPoint x="650" y="120"/>
                            <mxPoint x="650" y="120"/>
                        </Array>
                    </mxGeometry>
                </mxCell>
                <mxCell id="KaQHJhUn6kAV-yZn69av-16" value="" style="edgeStyle=orthogonalEdgeStyle;html=1;fontColor=#030303;" parent="KaQHJhUn6kAV-yZn69av-1" source="KaQHJhUn6kAV-yZn69av-5" target="KaQHJhUn6kAV-yZn69av-15" edge="1">
                    <mxGeometry relative="1" as="geometry">
                        <Array as="points">
                            <mxPoint x="720" y="120"/>
                            <mxPoint x="720" y="120"/>
                        </Array>
                    </mxGeometry>
                </mxCell>
                <mxCell id="KaQHJhUn6kAV-yZn69av-5" value="Функции&lt;br&gt;Разработчика" style="whiteSpace=wrap;html=1;fillColor=#a20025;strokeColor=#6F0000;fontColor=#ffffff;rounded=1;" parent="KaQHJhUn6kAV-yZn69av-1" vertex="1">
                    <mxGeometry x="640" y="10" width="120" height="60" as="geometry"/>
                </mxCell>
                <mxCell id="KaQHJhUn6kAV-yZn69av-18" value="" style="edgeStyle=orthogonalEdgeStyle;html=1;fontColor=#030303;" parent="KaQHJhUn6kAV-yZn69av-1" source="KaQHJhUn6kAV-yZn69av-7" target="KaQHJhUn6kAV-yZn69av-17" edge="1">
                    <mxGeometry relative="1" as="geometry"/>
                </mxCell>
                <mxCell id="KaQHJhUn6kAV-yZn69av-20" value="" style="edgeStyle=orthogonalEdgeStyle;html=1;fontColor=#030303;" parent="KaQHJhUn6kAV-yZn69av-1" source="KaQHJhUn6kAV-yZn69av-7" target="KaQHJhUn6kAV-yZn69av-19" edge="1">
                    <mxGeometry relative="1" as="geometry">
                        <Array as="points">
                            <mxPoint x="380" y="220"/>
                            <mxPoint x="380" y="220"/>
                        </Array>
                    </mxGeometry>
                </mxCell>
                <mxCell id="KaQHJhUn6kAV-yZn69av-24" value="" style="edgeStyle=orthogonalEdgeStyle;html=1;fontColor=#030303;" parent="KaQHJhUn6kAV-yZn69av-1" source="KaQHJhUn6kAV-yZn69av-7" target="KaQHJhUn6kAV-yZn69av-23" edge="1">
                    <mxGeometry relative="1" as="geometry">
                        <Array as="points">
                            <mxPoint x="545" y="170"/>
                        </Array>
                    </mxGeometry>
                </mxCell>
                <mxCell id="KaQHJhUn6kAV-yZn69av-26" value="" style="edgeStyle=orthogonalEdgeStyle;html=1;fontColor=#030303;" parent="KaQHJhUn6kAV-yZn69av-1" source="KaQHJhUn6kAV-yZn69av-7" target="KaQHJhUn6kAV-yZn69av-25" edge="1">
                    <mxGeometry relative="1" as="geometry">
                        <Array as="points">
                            <mxPoint x="450" y="220"/>
                            <mxPoint x="450" y="220"/>
                        </Array>
                    </mxGeometry>
                </mxCell>
                <mxCell id="KaQHJhUn6kAV-yZn69av-28" value="" style="edgeStyle=orthogonalEdgeStyle;html=1;fontColor=#030303;" parent="KaQHJhUn6kAV-yZn69av-1" source="KaQHJhUn6kAV-yZn69av-7" target="KaQHJhUn6kAV-yZn69av-27" edge="1">
                    <mxGeometry relative="1" as="geometry"/>
                </mxCell>
                <mxCell id="KaQHJhUn6kAV-yZn69av-44" value="" style="edgeStyle=orthogonalEdgeStyle;html=1;fontColor=#030303;" parent="KaQHJhUn6kAV-yZn69av-1" source="KaQHJhUn6kAV-yZn69av-7" target="KaQHJhUn6kAV-yZn69av-43" edge="1">
                    <mxGeometry relative="1" as="geometry">
                        <Array as="points">
                            <mxPoint x="425" y="230"/>
                            <mxPoint x="130" y="230"/>
                        </Array>
                    </mxGeometry>
                </mxCell>
                <mxCell id="KaQHJhUn6kAV-yZn69av-7" value="Пользовательские функции" style="whiteSpace=wrap;html=1;fillColor=#60a917;strokeColor=#2D7600;rounded=1;fontColor=#ffffff;" parent="KaQHJhUn6kAV-yZn69av-1" vertex="1">
                    <mxGeometry x="365" y="140" width="120" height="60" as="geometry"/>
                </mxCell>
                <mxCell id="KaQHJhUn6kAV-yZn69av-9" value="_kick()" style="whiteSpace=wrap;html=1;fillColor=#1ba1e2;strokeColor=#006EAF;fontColor=#ffffff;rounded=1;" parent="KaQHJhUn6kAV-yZn69av-1" vertex="1">
                    <mxGeometry x="80" y="140" width="120" height="60" as="geometry"/>
                </mxCell>
                <mxCell id="KaQHJhUn6kAV-yZn69av-11" value="_jackpot()" style="whiteSpace=wrap;html=1;fillColor=#a20025;strokeColor=#6F0000;fontColor=#ffffff;rounded=1;" parent="KaQHJhUn6kAV-yZn69av-1" vertex="1">
                    <mxGeometry x="730" y="140" width="120" height="60" as="geometry"/>
                </mxCell>
                <mxCell id="KaQHJhUn6kAV-yZn69av-13" value="set_balance()" style="whiteSpace=wrap;html=1;fillColor=#a20025;strokeColor=#6F0000;fontColor=#ffffff;rounded=1;" parent="KaQHJhUn6kAV-yZn69av-1" vertex="1">
                    <mxGeometry x="590" y="140" width="120" height="60" as="geometry"/>
                </mxCell>
                <mxCell id="KaQHJhUn6kAV-yZn69av-15" value="/lvlset" style="whiteSpace=wrap;html=1;fillColor=#a20025;strokeColor=#6F0000;fontColor=#ffffff;rounded=1;" parent="KaQHJhUn6kAV-yZn69av-1" vertex="1">
                    <mxGeometry x="660" y="230" width="120" height="60" as="geometry"/>
                </mxCell>
                <mxCell id="KaQHJhUn6kAV-yZn69av-32" value="" style="edgeStyle=orthogonalEdgeStyle;html=1;fontColor=#030303;" parent="KaQHJhUn6kAV-yZn69av-1" source="KaQHJhUn6kAV-yZn69av-17" target="KaQHJhUn6kAV-yZn69av-31" edge="1">
                    <mxGeometry relative="1" as="geometry"/>
                </mxCell>
                <mxCell id="KaQHJhUn6kAV-yZn69av-34" value="" style="edgeStyle=orthogonalEdgeStyle;html=1;fontColor=#030303;" parent="KaQHJhUn6kAV-yZn69av-1" source="KaQHJhUn6kAV-yZn69av-17" target="KaQHJhUn6kAV-yZn69av-33" edge="1">
                    <mxGeometry relative="1" as="geometry"/>
                </mxCell>
                <mxCell id="KaQHJhUn6kAV-yZn69av-36" value="" style="edgeStyle=orthogonalEdgeStyle;html=1;fontColor=#030303;" parent="KaQHJhUn6kAV-yZn69av-1" source="KaQHJhUn6kAV-yZn69av-17" target="KaQHJhUn6kAV-yZn69av-35" edge="1">
                    <mxGeometry relative="1" as="geometry"/>
                </mxCell>
                <mxCell id="KaQHJhUn6kAV-yZn69av-38" value="" style="edgeStyle=orthogonalEdgeStyle;html=1;fontColor=#030303;" parent="KaQHJhUn6kAV-yZn69av-1" source="KaQHJhUn6kAV-yZn69av-17" target="KaQHJhUn6kAV-yZn69av-37" edge="1">
                    <mxGeometry relative="1" as="geometry"/>
                </mxCell>
                <mxCell id="KaQHJhUn6kAV-yZn69av-17" value="Игры" style="whiteSpace=wrap;html=1;fillColor=#60a917;strokeColor=#2D7600;fontColor=#ffffff;rounded=1;" parent="KaQHJhUn6kAV-yZn69av-1" vertex="1">
                    <mxGeometry x="160" y="310" width="120" height="60" as="geometry"/>
                </mxCell>
                <mxCell id="KaQHJhUn6kAV-yZn69av-21" value="" style="edgeStyle=orthogonalEdgeStyle;html=1;fontColor=#030303;" parent="KaQHJhUn6kAV-yZn69av-1" source="KaQHJhUn6kAV-yZn69av-19" target="KaQHJhUn6kAV-yZn69av-17" edge="1">
                    <mxGeometry relative="1" as="geometry"/>
                </mxCell>
                <mxCell id="KaQHJhUn6kAV-yZn69av-30" value="" style="edgeStyle=orthogonalEdgeStyle;html=1;fontColor=#030303;" parent="KaQHJhUn6kAV-yZn69av-1" source="KaQHJhUn6kAV-yZn69av-19" target="KaQHJhUn6kAV-yZn69av-29" edge="1">
                    <mxGeometry relative="1" as="geometry"/>
                </mxCell>
                <mxCell id="KaQHJhUn6kAV-yZn69av-19" value="Питомцы" style="whiteSpace=wrap;html=1;fillColor=#60a917;strokeColor=#2D7600;fontColor=#ffffff;rounded=1;" parent="KaQHJhUn6kAV-yZn69av-1" vertex="1">
                    <mxGeometry x="320" y="310" width="120" height="60" as="geometry"/>
                </mxCell>
                <mxCell id="KaQHJhUn6kAV-yZn69av-40" value="" style="edgeStyle=orthogonalEdgeStyle;html=1;fontColor=#030303;" parent="KaQHJhUn6kAV-yZn69av-1" source="KaQHJhUn6kAV-yZn69av-23" target="KaQHJhUn6kAV-yZn69av-39" edge="1">
                    <mxGeometry relative="1" as="geometry"/>
                </mxCell>
                <mxCell id="KaQHJhUn6kAV-yZn69av-23" value="Покупка Ролей" style="whiteSpace=wrap;html=1;fillColor=#60a917;strokeColor=#2D7600;fontColor=#ffffff;rounded=1;" parent="KaQHJhUn6kAV-yZn69av-1" vertex="1">
                    <mxGeometry x="485" y="310" width="120" height="60" as="geometry"/>
                </mxCell>
                <mxCell id="KaQHJhUn6kAV-yZn69av-42" value="" style="edgeStyle=orthogonalEdgeStyle;html=1;fontColor=#030303;" parent="KaQHJhUn6kAV-yZn69av-1" source="KaQHJhUn6kAV-yZn69av-25" target="KaQHJhUn6kAV-yZn69av-41" edge="1">
                    <mxGeometry relative="1" as="geometry"/>
                </mxCell>
                <mxCell id="KaQHJhUn6kAV-yZn69av-25" value="Покупка голосовых каналов" style="whiteSpace=wrap;html=1;fillColor=#60a917;strokeColor=#2D7600;fontColor=#ffffff;rounded=1;" parent="KaQHJhUn6kAV-yZn69av-1" vertex="1">
                    <mxGeometry x="485" y="380" width="120" height="60" as="geometry"/>
                </mxCell>
                <mxCell id="KaQHJhUn6kAV-yZn69av-27" value="Вознаграждение за войс" style="whiteSpace=wrap;html=1;fillColor=#60a917;strokeColor=#2D7600;fontColor=#ffffff;rounded=1;" parent="KaQHJhUn6kAV-yZn69av-1" vertex="1">
                    <mxGeometry x="485" y="460" width="120" height="60" as="geometry"/>
                </mxCell>
                <mxCell id="KaQHJhUn6kAV-yZn69av-29" value="/casaepets" style="whiteSpace=wrap;html=1;fillColor=#60a917;strokeColor=#2D7600;fontColor=#ffffff;rounded=1;" parent="KaQHJhUn6kAV-yZn69av-1" vertex="1">
                    <mxGeometry x="320" y="450" width="120" height="60" as="geometry"/>
                </mxCell>
                <mxCell id="KaQHJhUn6kAV-yZn69av-31" value="/case" style="whiteSpace=wrap;html=1;fillColor=#60a917;strokeColor=#2D7600;fontColor=#ffffff;rounded=1;" parent="KaQHJhUn6kAV-yZn69av-1" vertex="1">
                    <mxGeometry x="190" y="450" width="120" height="60" as="geometry"/>
                </mxCell>
                <mxCell id="KaQHJhUn6kAV-yZn69av-33" value="/casino" style="whiteSpace=wrap;html=1;fillColor=#60a917;strokeColor=#2D7600;fontColor=#ffffff;rounded=1;" parent="KaQHJhUn6kAV-yZn69av-1" vertex="1">
                    <mxGeometry x="190" y="530" width="120" height="60" as="geometry"/>
                </mxCell>
                <mxCell id="KaQHJhUn6kAV-yZn69av-35" value="/slots" style="whiteSpace=wrap;html=1;fillColor=#60a917;strokeColor=#2D7600;fontColor=#ffffff;rounded=1;" parent="KaQHJhUn6kAV-yZn69av-1" vertex="1">
                    <mxGeometry x="190" y="600" width="120" height="60" as="geometry"/>
                </mxCell>
                <mxCell id="KaQHJhUn6kAV-yZn69av-37" value="/roulette" style="whiteSpace=wrap;html=1;fillColor=#60a917;strokeColor=#2D7600;fontColor=#ffffff;rounded=1;" parent="KaQHJhUn6kAV-yZn69av-1" vertex="1">
                    <mxGeometry x="190" y="680" width="120" height="60" as="geometry"/>
                </mxCell>
                <mxCell id="KaQHJhUn6kAV-yZn69av-39" value="3 команды" style="whiteSpace=wrap;html=1;fillColor=#60a917;strokeColor=#2D7600;fontColor=#ffffff;rounded=1;" parent="KaQHJhUn6kAV-yZn69av-1" vertex="1">
                    <mxGeometry x="660" y="310" width="120" height="60" as="geometry"/>
                </mxCell>
                <mxCell id="KaQHJhUn6kAV-yZn69av-41" value="1 команда" style="whiteSpace=wrap;html=1;fillColor=#60a917;strokeColor=#2D7600;fontColor=#ffffff;rounded=1;" parent="KaQHJhUn6kAV-yZn69av-1" vertex="1">
                    <mxGeometry x="660" y="380" width="120" height="60" as="geometry"/>
                </mxCell>
                <mxCell id="KaQHJhUn6kAV-yZn69av-46" value="" style="edgeStyle=orthogonalEdgeStyle;html=1;fontColor=#030303;" parent="KaQHJhUn6kAV-yZn69av-1" source="KaQHJhUn6kAV-yZn69av-43" target="KaQHJhUn6kAV-yZn69av-45" edge="1">
                    <mxGeometry relative="1" as="geometry"/>
                </mxCell>
                <mxCell id="KaQHJhUn6kAV-yZn69av-43" value="help" style="whiteSpace=wrap;html=1;fillColor=#60a917;strokeColor=#2D7600;fontColor=#ffffff;rounded=1;" parent="KaQHJhUn6kAV-yZn69av-1" vertex="1">
                    <mxGeometry x="30" y="310" width="120" height="60" as="geometry"/>
                </mxCell>
                <mxCell id="KaQHJhUn6kAV-yZn69av-45" value="3 команды&lt;br&gt;" style="whiteSpace=wrap;html=1;fillColor=#60a917;strokeColor=#2D7600;fontColor=#ffffff;rounded=1;" parent="KaQHJhUn6kAV-yZn69av-1" vertex="1">
                    <mxGeometry x="30" y="450" width="120" height="60" as="geometry"/>
                </mxCell>
            </root>
        </mxGraphModel>
    </diagram>
</mxfile>